# xmcd CD database file
#
# Track frame offsets:
#	150
#	20360
#	42200
#
# Disc length: 814 seconds
#
# Revision: 0
# Processed by: cddbd v1.5.1PL2 Copyright (c) Steve Scherf et al.
# Submitted via: CDex 1.60beta1
#
DISCID=19032c03
DTITLE=モダンチョキチョキズ - 天体観測
DYEAR=1994
DGENRE=JPop
TTITLE0=天体観測
TTITLE1=愛のモールス信号
TTITLE2=天体観測 (オリジナル・カラオケ)
EXTD=YEAR: 1994
EXTT0=
EXTT1=
EXTT2=
PLAYORDER=
